<mxfile host="app.diagrams.net" modified="2023-12-13T13:00:17.198Z" agent="Mozilla/5.0 (Windows NT 10.0; Win64; x64) AppleWebKit/537.36 (KHTML, like Gecko) Chrome/120.0.0.0 Safari/537.36" etag="QwcN_ZOErLQMMdtta7lY" version="22.1.8" type="device">
  <diagram name="Page-1" id="rTSKEtmty86vhWDiz_cu">
    <mxGraphModel dx="2950" dy="2144" grid="1" gridSize="10" guides="1" tooltips="1" connect="1" arrows="1" fold="1" page="1" pageScale="1" pageWidth="850" pageHeight="1100" math="0" shadow="0">
      <root>
        <mxCell id="0" />
        <mxCell id="1" parent="0" />
        <mxCell id="Zz9IWeuvRot5y11xkyDF-2" value="ATTACHED_TO" style="rhombus;whiteSpace=wrap;html=1;" vertex="1" parent="1">
          <mxGeometry x="800" y="395" width="140" height="90" as="geometry" />
        </mxCell>
        <mxCell id="Zz9IWeuvRot5y11xkyDF-3" value="" style="rounded=0;whiteSpace=wrap;html=1;" vertex="1" parent="1">
          <mxGeometry x="510" y="410" width="120" height="60" as="geometry" />
        </mxCell>
        <mxCell id="Zz9IWeuvRot5y11xkyDF-4" value="" style="rounded=0;whiteSpace=wrap;html=1;" vertex="1" parent="1">
          <mxGeometry x="1090" y="410" width="130" height="60" as="geometry" />
        </mxCell>
        <mxCell id="Zz9IWeuvRot5y11xkyDF-5" value="ATTACHED_TO" style="rhombus;whiteSpace=wrap;html=1;" vertex="1" parent="1">
          <mxGeometry x="1080" y="200" width="150" height="100" as="geometry" />
        </mxCell>
        <mxCell id="Zz9IWeuvRot5y11xkyDF-6" value="PASSENGER" style="rounded=0;whiteSpace=wrap;html=1;" vertex="1" parent="1">
          <mxGeometry x="100" y="70" width="110" height="40" as="geometry" />
        </mxCell>
        <mxCell id="Zz9IWeuvRot5y11xkyDF-7" value="AIRPORT" style="rounded=0;whiteSpace=wrap;html=1;" vertex="1" parent="1">
          <mxGeometry x="610" y="207.5" width="110" height="40" as="geometry" />
        </mxCell>
        <mxCell id="Zz9IWeuvRot5y11xkyDF-8" value="AIRPLANE" style="rounded=0;whiteSpace=wrap;html=1;" vertex="1" parent="1">
          <mxGeometry x="1505" y="70" width="110" height="40" as="geometry" />
        </mxCell>
        <mxCell id="Zz9IWeuvRot5y11xkyDF-9" value="FLIGHT" style="rounded=0;whiteSpace=wrap;html=1;" vertex="1" parent="1">
          <mxGeometry x="1100" y="70" width="110" height="40" as="geometry" />
        </mxCell>
        <mxCell id="Zz9IWeuvRot5y11xkyDF-10" value="PAYMENT_CARD&lt;span id=&quot;docs-internal-guid-a368fe4d-7fff-fab8-b84e-1b425e451d34&quot;&gt;&lt;/span&gt;" style="rounded=0;whiteSpace=wrap;html=1;" vertex="1" parent="1">
          <mxGeometry x="520" y="70" width="110" height="40" as="geometry" />
        </mxCell>
        <mxCell id="Zz9IWeuvRot5y11xkyDF-11" value="LEG_INSTANCE" style="rounded=0;whiteSpace=wrap;html=1;" vertex="1" parent="1">
          <mxGeometry x="1100" y="420" width="110" height="40" as="geometry" />
        </mxCell>
        <mxCell id="Zz9IWeuvRot5y11xkyDF-12" value="TICKET" style="rounded=0;whiteSpace=wrap;html=1;" vertex="1" parent="1">
          <mxGeometry x="100" y="420" width="110" height="40" as="geometry" />
        </mxCell>
        <mxCell id="Zz9IWeuvRot5y11xkyDF-13" value="AIRPLANE_TYPE" style="rounded=0;whiteSpace=wrap;html=1;" vertex="1" parent="1">
          <mxGeometry x="1510" y="420" width="110" height="40" as="geometry" />
        </mxCell>
        <mxCell id="Zz9IWeuvRot5y11xkyDF-14" value="SEAT" style="rounded=0;whiteSpace=wrap;html=1;" vertex="1" parent="1">
          <mxGeometry x="515" y="420" width="110" height="40" as="geometry" />
        </mxCell>
        <mxCell id="Zz9IWeuvRot5y11xkyDF-15" value="GENERATED_TO" style="rhombus;whiteSpace=wrap;html=1;" vertex="1" parent="1">
          <mxGeometry x="90" y="220" width="130" height="80" as="geometry" />
        </mxCell>
        <mxCell id="Zz9IWeuvRot5y11xkyDF-16" value="" style="endArrow=none;html=1;rounded=0;entryX=0.431;entryY=0.95;entryDx=0;entryDy=0;entryPerimeter=0;" edge="1" parent="1" target="Zz9IWeuvRot5y11xkyDF-15">
          <mxGeometry width="50" height="50" relative="1" as="geometry">
            <mxPoint x="146" y="420" as="sourcePoint" />
            <mxPoint x="190" y="370" as="targetPoint" />
          </mxGeometry>
        </mxCell>
        <mxCell id="Zz9IWeuvRot5y11xkyDF-17" value="" style="endArrow=none;html=1;rounded=0;entryX=0.431;entryY=0.95;entryDx=0;entryDy=0;entryPerimeter=0;" edge="1" parent="1">
          <mxGeometry width="50" height="50" relative="1" as="geometry">
            <mxPoint x="160" y="420" as="sourcePoint" />
            <mxPoint x="160" y="296" as="targetPoint" />
          </mxGeometry>
        </mxCell>
        <mxCell id="Zz9IWeuvRot5y11xkyDF-18" value="" style="endArrow=none;html=1;rounded=0;entryX=0.431;entryY=0.95;entryDx=0;entryDy=0;entryPerimeter=0;" edge="1" parent="1">
          <mxGeometry width="50" height="50" relative="1" as="geometry">
            <mxPoint x="154.38" y="220" as="sourcePoint" />
            <mxPoint x="154.38" y="110" as="targetPoint" />
          </mxGeometry>
        </mxCell>
        <mxCell id="Zz9IWeuvRot5y11xkyDF-19" value="N" style="text;html=1;strokeColor=none;fillColor=none;align=center;verticalAlign=middle;whiteSpace=wrap;rounded=0;" vertex="1" parent="1">
          <mxGeometry x="140" y="290" width="60" height="30" as="geometry" />
        </mxCell>
        <mxCell id="Zz9IWeuvRot5y11xkyDF-20" value="1" style="text;html=1;strokeColor=none;fillColor=none;align=center;verticalAlign=middle;whiteSpace=wrap;rounded=0;" vertex="1" parent="1">
          <mxGeometry x="140" y="200" width="60" height="30" as="geometry" />
        </mxCell>
        <mxCell id="Zz9IWeuvRot5y11xkyDF-21" value="ATTACHED_TO" style="rhombus;whiteSpace=wrap;html=1;" vertex="1" parent="1">
          <mxGeometry x="295" y="50" width="130" height="80" as="geometry" />
        </mxCell>
        <mxCell id="Zz9IWeuvRot5y11xkyDF-22" value="" style="endArrow=none;html=1;rounded=0;entryX=0.123;entryY=0.363;entryDx=0;entryDy=0;exitX=1;exitY=0.5;exitDx=0;exitDy=0;entryPerimeter=0;" edge="1" parent="1" target="Zz9IWeuvRot5y11xkyDF-21">
          <mxGeometry width="50" height="50" relative="1" as="geometry">
            <mxPoint x="210" y="79.99999999999989" as="sourcePoint" />
            <mxPoint x="295" y="79.99999999999989" as="targetPoint" />
          </mxGeometry>
        </mxCell>
        <mxCell id="Zz9IWeuvRot5y11xkyDF-23" value="" style="endArrow=none;html=1;rounded=0;exitX=1;exitY=0.5;exitDx=0;exitDy=0;" edge="1" parent="1">
          <mxGeometry width="50" height="50" relative="1" as="geometry">
            <mxPoint x="210" y="90.36999999999989" as="sourcePoint" />
            <mxPoint x="300" y="89" as="targetPoint" />
          </mxGeometry>
        </mxCell>
        <mxCell id="Zz9IWeuvRot5y11xkyDF-24" value="" style="endArrow=none;html=1;rounded=0;entryX=0.123;entryY=0.363;entryDx=0;entryDy=0;exitX=1;exitY=0.5;exitDx=0;exitDy=0;entryPerimeter=0;" edge="1" parent="1">
          <mxGeometry width="50" height="50" relative="1" as="geometry">
            <mxPoint x="419" y="85.31999999999988" as="sourcePoint" />
            <mxPoint x="520" y="84.32" as="targetPoint" />
          </mxGeometry>
        </mxCell>
        <mxCell id="Zz9IWeuvRot5y11xkyDF-25" value="" style="endArrow=none;html=1;rounded=0;exitX=1;exitY=0.5;exitDx=0;exitDy=0;" edge="1" parent="1">
          <mxGeometry width="50" height="50" relative="1" as="geometry">
            <mxPoint x="419" y="95.68999999999988" as="sourcePoint" />
            <mxPoint x="520" y="96" as="targetPoint" />
          </mxGeometry>
        </mxCell>
        <mxCell id="Zz9IWeuvRot5y11xkyDF-26" value="1" style="text;html=1;strokeColor=none;fillColor=none;align=center;verticalAlign=middle;whiteSpace=wrap;rounded=0;" vertex="1" parent="1">
          <mxGeometry x="280" y="50" width="60" height="30" as="geometry" />
        </mxCell>
        <mxCell id="Zz9IWeuvRot5y11xkyDF-27" value="1" style="text;html=1;strokeColor=none;fillColor=none;align=center;verticalAlign=middle;whiteSpace=wrap;rounded=0;" vertex="1" parent="1">
          <mxGeometry x="390" y="50" width="60" height="30" as="geometry" />
        </mxCell>
        <mxCell id="Zz9IWeuvRot5y11xkyDF-28" value="INSTANCES" style="rhombus;whiteSpace=wrap;html=1;" vertex="1" parent="1">
          <mxGeometry x="1090" y="210" width="130" height="80" as="geometry" />
        </mxCell>
        <mxCell id="Zz9IWeuvRot5y11xkyDF-29" value="" style="endArrow=none;html=1;rounded=0;entryX=0.5;entryY=1;entryDx=0;entryDy=0;exitX=0.5;exitY=0;exitDx=0;exitDy=0;" edge="1" parent="1" source="Zz9IWeuvRot5y11xkyDF-5" target="Zz9IWeuvRot5y11xkyDF-9">
          <mxGeometry width="50" height="50" relative="1" as="geometry">
            <mxPoint x="960" y="370" as="sourcePoint" />
            <mxPoint x="1010" y="320" as="targetPoint" />
          </mxGeometry>
        </mxCell>
        <mxCell id="Zz9IWeuvRot5y11xkyDF-30" value="" style="endArrow=none;html=1;rounded=0;entryX=0.44;entryY=0.96;entryDx=0;entryDy=0;exitX=0.431;exitY=0.033;exitDx=0;exitDy=0;exitPerimeter=0;entryPerimeter=0;" edge="1" parent="1" source="Zz9IWeuvRot5y11xkyDF-4" target="Zz9IWeuvRot5y11xkyDF-5">
          <mxGeometry width="50" height="50" relative="1" as="geometry">
            <mxPoint x="1149" y="390" as="sourcePoint" />
            <mxPoint x="1149" y="300" as="targetPoint" />
          </mxGeometry>
        </mxCell>
        <mxCell id="Zz9IWeuvRot5y11xkyDF-31" value="" style="endArrow=none;html=1;rounded=0;exitX=0.431;exitY=0.033;exitDx=0;exitDy=0;exitPerimeter=0;" edge="1" parent="1">
          <mxGeometry width="50" height="50" relative="1" as="geometry">
            <mxPoint x="1160" y="410" as="sourcePoint" />
            <mxPoint x="1160" y="300" as="targetPoint" />
          </mxGeometry>
        </mxCell>
        <mxCell id="Zz9IWeuvRot5y11xkyDF-32" value="1" style="text;html=1;strokeColor=none;fillColor=none;align=center;verticalAlign=middle;whiteSpace=wrap;rounded=0;" vertex="1" parent="1">
          <mxGeometry x="1140" y="180" width="60" height="30" as="geometry" />
        </mxCell>
        <mxCell id="Zz9IWeuvRot5y11xkyDF-33" value="N" style="text;html=1;strokeColor=none;fillColor=none;align=center;verticalAlign=middle;whiteSpace=wrap;rounded=0;" vertex="1" parent="1">
          <mxGeometry x="1150" y="290" width="60" height="30" as="geometry" />
        </mxCell>
        <mxCell id="Zz9IWeuvRot5y11xkyDF-34" value="RESERVED_TO" style="rhombus;whiteSpace=wrap;html=1;" vertex="1" parent="1">
          <mxGeometry x="810" y="405" width="120" height="70" as="geometry" />
        </mxCell>
        <mxCell id="Zz9IWeuvRot5y11xkyDF-35" value="" style="endArrow=none;html=1;rounded=0;entryX=0.5;entryY=1;entryDx=0;entryDy=0;exitX=0;exitY=0.5;exitDx=0;exitDy=0;" edge="1" parent="1" source="Zz9IWeuvRot5y11xkyDF-4" target="Zz9IWeuvRot5y11xkyDF-36">
          <mxGeometry width="50" height="50" relative="1" as="geometry">
            <mxPoint x="810" y="370" as="sourcePoint" />
            <mxPoint x="870" y="440" as="targetPoint" />
          </mxGeometry>
        </mxCell>
        <mxCell id="Zz9IWeuvRot5y11xkyDF-36" value="1" style="text;html=1;strokeColor=none;fillColor=none;align=center;verticalAlign=middle;whiteSpace=wrap;rounded=0;" vertex="1" parent="1">
          <mxGeometry x="910" y="410" width="60" height="30" as="geometry" />
        </mxCell>
        <mxCell id="Zz9IWeuvRot5y11xkyDF-37" value="" style="endArrow=none;html=1;rounded=0;" edge="1" parent="1">
          <mxGeometry width="50" height="50" relative="1" as="geometry">
            <mxPoint x="630" y="430" as="sourcePoint" />
            <mxPoint x="815" y="430" as="targetPoint" />
          </mxGeometry>
        </mxCell>
        <mxCell id="Zz9IWeuvRot5y11xkyDF-38" value="" style="endArrow=none;html=1;rounded=0;entryX=0;entryY=0.5;entryDx=0;entryDy=0;exitX=1;exitY=0.5;exitDx=0;exitDy=0;" edge="1" parent="1" source="Zz9IWeuvRot5y11xkyDF-3" target="Zz9IWeuvRot5y11xkyDF-2">
          <mxGeometry width="50" height="50" relative="1" as="geometry">
            <mxPoint x="630" y="450" as="sourcePoint" />
            <mxPoint x="740" y="450" as="targetPoint" />
          </mxGeometry>
        </mxCell>
        <mxCell id="Zz9IWeuvRot5y11xkyDF-39" value="N" style="text;html=1;strokeColor=none;fillColor=none;align=center;verticalAlign=middle;whiteSpace=wrap;rounded=0;" vertex="1" parent="1">
          <mxGeometry x="770" y="405" width="60" height="30" as="geometry" />
        </mxCell>
        <mxCell id="Zz9IWeuvRot5y11xkyDF-40" value="BOOKS" style="rhombus;whiteSpace=wrap;html=1;" vertex="1" parent="1">
          <mxGeometry x="295" y="400" width="130" height="80" as="geometry" />
        </mxCell>
        <mxCell id="Zz9IWeuvRot5y11xkyDF-41" value="" style="endArrow=none;html=1;rounded=0;exitX=1;exitY=0.25;exitDx=0;exitDy=0;entryX=0.092;entryY=0.375;entryDx=0;entryDy=0;entryPerimeter=0;" edge="1" parent="1" source="Zz9IWeuvRot5y11xkyDF-12" target="Zz9IWeuvRot5y11xkyDF-40">
          <mxGeometry width="50" height="50" relative="1" as="geometry">
            <mxPoint x="640" y="360" as="sourcePoint" />
            <mxPoint x="690" y="310" as="targetPoint" />
          </mxGeometry>
        </mxCell>
        <mxCell id="Zz9IWeuvRot5y11xkyDF-42" value="" style="endArrow=none;html=1;rounded=0;exitX=1;exitY=0.5;exitDx=0;exitDy=0;" edge="1" parent="1" source="Zz9IWeuvRot5y11xkyDF-12">
          <mxGeometry width="50" height="50" relative="1" as="geometry">
            <mxPoint x="220" y="440" as="sourcePoint" />
            <mxPoint x="300" y="440" as="targetPoint" />
          </mxGeometry>
        </mxCell>
        <mxCell id="Zz9IWeuvRot5y11xkyDF-43" value="" style="endArrow=none;html=1;rounded=0;exitX=1;exitY=0.5;exitDx=0;exitDy=0;entryX=0;entryY=0.5;entryDx=0;entryDy=0;" edge="1" parent="1" source="Zz9IWeuvRot5y11xkyDF-40" target="Zz9IWeuvRot5y11xkyDF-3">
          <mxGeometry width="50" height="50" relative="1" as="geometry">
            <mxPoint x="640" y="360" as="sourcePoint" />
            <mxPoint x="690" y="310" as="targetPoint" />
          </mxGeometry>
        </mxCell>
        <mxCell id="Zz9IWeuvRot5y11xkyDF-44" value="1" style="text;html=1;strokeColor=none;fillColor=none;align=center;verticalAlign=middle;whiteSpace=wrap;rounded=0;" vertex="1" parent="1">
          <mxGeometry x="395" y="410" width="60" height="30" as="geometry" />
        </mxCell>
        <mxCell id="Zz9IWeuvRot5y11xkyDF-45" value="1" style="text;html=1;strokeColor=none;fillColor=none;align=center;verticalAlign=middle;whiteSpace=wrap;rounded=0;" vertex="1" parent="1">
          <mxGeometry x="270" y="410" width="60" height="30" as="geometry" />
        </mxCell>
        <mxCell id="Zz9IWeuvRot5y11xkyDF-46" value="TYPE" style="rhombus;whiteSpace=wrap;html=1;" vertex="1" parent="1">
          <mxGeometry x="1500" y="210" width="130" height="80" as="geometry" />
        </mxCell>
        <mxCell id="Zz9IWeuvRot5y11xkyDF-47" value="" style="endArrow=none;html=1;rounded=0;exitX=0.423;exitY=0.062;exitDx=0;exitDy=0;exitPerimeter=0;" edge="1" parent="1" source="Zz9IWeuvRot5y11xkyDF-46">
          <mxGeometry width="50" height="50" relative="1" as="geometry">
            <mxPoint x="1045" y="360" as="sourcePoint" />
            <mxPoint x="1555" y="110" as="targetPoint" />
          </mxGeometry>
        </mxCell>
        <mxCell id="Zz9IWeuvRot5y11xkyDF-48" value="" style="endArrow=none;html=1;rounded=0;" edge="1" parent="1">
          <mxGeometry width="50" height="50" relative="1" as="geometry">
            <mxPoint x="1565" y="210" as="sourcePoint" />
            <mxPoint x="1565" y="110" as="targetPoint" />
          </mxGeometry>
        </mxCell>
        <mxCell id="Zz9IWeuvRot5y11xkyDF-49" value="" style="endArrow=none;html=1;rounded=0;entryX=0.5;entryY=1;entryDx=0;entryDy=0;exitX=0.5;exitY=0;exitDx=0;exitDy=0;" edge="1" parent="1" source="Zz9IWeuvRot5y11xkyDF-13" target="Zz9IWeuvRot5y11xkyDF-46">
          <mxGeometry width="50" height="50" relative="1" as="geometry">
            <mxPoint x="1045" y="360" as="sourcePoint" />
            <mxPoint x="1095" y="310" as="targetPoint" />
          </mxGeometry>
        </mxCell>
        <mxCell id="Zz9IWeuvRot5y11xkyDF-50" value="1" style="text;html=1;strokeColor=none;fillColor=none;align=center;verticalAlign=middle;whiteSpace=wrap;rounded=0;" vertex="1" parent="1">
          <mxGeometry x="1545" y="280" width="60" height="30" as="geometry" />
        </mxCell>
        <mxCell id="Zz9IWeuvRot5y11xkyDF-51" value="N" style="text;html=1;strokeColor=none;fillColor=none;align=center;verticalAlign=middle;whiteSpace=wrap;rounded=0;" vertex="1" parent="1">
          <mxGeometry x="1545" y="190" width="60" height="30" as="geometry" />
        </mxCell>
        <mxCell id="Zz9IWeuvRot5y11xkyDF-52" value="STEWARD" style="rounded=0;whiteSpace=wrap;html=1;" vertex="1" parent="1">
          <mxGeometry x="1095" y="660" width="120" height="50" as="geometry" />
        </mxCell>
        <mxCell id="Zz9IWeuvRot5y11xkyDF-53" value="GUIDES_IN" style="rhombus;whiteSpace=wrap;html=1;" vertex="1" parent="1">
          <mxGeometry x="1090" y="520" width="130" height="80" as="geometry" />
        </mxCell>
        <mxCell id="Zz9IWeuvRot5y11xkyDF-54" value="" style="endArrow=none;html=1;rounded=0;exitX=0.5;exitY=0;exitDx=0;exitDy=0;entryX=0.5;entryY=1;entryDx=0;entryDy=0;" edge="1" parent="1" source="Zz9IWeuvRot5y11xkyDF-52" target="Zz9IWeuvRot5y11xkyDF-53">
          <mxGeometry width="50" height="50" relative="1" as="geometry">
            <mxPoint x="850" y="480" as="sourcePoint" />
            <mxPoint x="900" y="430" as="targetPoint" />
          </mxGeometry>
        </mxCell>
        <mxCell id="Zz9IWeuvRot5y11xkyDF-55" value="" style="endArrow=none;html=1;rounded=0;exitX=0.431;exitY=0.087;exitDx=0;exitDy=0;exitPerimeter=0;entryX=0.431;entryY=1.017;entryDx=0;entryDy=0;entryPerimeter=0;" edge="1" parent="1" source="Zz9IWeuvRot5y11xkyDF-53" target="Zz9IWeuvRot5y11xkyDF-4">
          <mxGeometry width="50" height="50" relative="1" as="geometry">
            <mxPoint x="850" y="480" as="sourcePoint" />
            <mxPoint x="900" y="430" as="targetPoint" />
          </mxGeometry>
        </mxCell>
        <mxCell id="Zz9IWeuvRot5y11xkyDF-56" value="" style="endArrow=none;html=1;rounded=0;entryX=0.5;entryY=1;entryDx=0;entryDy=0;" edge="1" parent="1" target="Zz9IWeuvRot5y11xkyDF-4">
          <mxGeometry width="50" height="50" relative="1" as="geometry">
            <mxPoint x="1155" y="520" as="sourcePoint" />
            <mxPoint x="1156" y="481" as="targetPoint" />
          </mxGeometry>
        </mxCell>
        <mxCell id="Zz9IWeuvRot5y11xkyDF-57" value="1" style="text;html=1;strokeColor=none;fillColor=none;align=center;verticalAlign=middle;whiteSpace=wrap;rounded=0;" vertex="1" parent="1">
          <mxGeometry x="1140" y="590" width="60" height="30" as="geometry" />
        </mxCell>
        <mxCell id="Zz9IWeuvRot5y11xkyDF-58" value="N" style="text;html=1;strokeColor=none;fillColor=none;align=center;verticalAlign=middle;whiteSpace=wrap;rounded=0;" vertex="1" parent="1">
          <mxGeometry x="1150" y="500" width="60" height="30" as="geometry" />
        </mxCell>
        <mxCell id="Zz9IWeuvRot5y11xkyDF-59" value="ASSIGNED" style="rhombus;whiteSpace=wrap;html=1;" vertex="1" parent="1">
          <mxGeometry x="1310" y="210" width="130" height="80" as="geometry" />
        </mxCell>
        <mxCell id="Zz9IWeuvRot5y11xkyDF-60" value="" style="endArrow=none;html=1;rounded=0;entryX=0;entryY=1;entryDx=0;entryDy=0;exitX=0.5;exitY=0;exitDx=0;exitDy=0;" edge="1" parent="1" source="Zz9IWeuvRot5y11xkyDF-59" target="Zz9IWeuvRot5y11xkyDF-8">
          <mxGeometry width="50" height="50" relative="1" as="geometry">
            <mxPoint x="1010" y="360" as="sourcePoint" />
            <mxPoint x="1060" y="310" as="targetPoint" />
          </mxGeometry>
        </mxCell>
        <mxCell id="Zz9IWeuvRot5y11xkyDF-61" value="" style="endArrow=none;html=1;rounded=0;entryX=0.415;entryY=0.937;entryDx=0;entryDy=0;exitX=0.5;exitY=0;exitDx=0;exitDy=0;entryPerimeter=0;" edge="1" parent="1" target="Zz9IWeuvRot5y11xkyDF-59">
          <mxGeometry width="50" height="50" relative="1" as="geometry">
            <mxPoint x="1215" y="410" as="sourcePoint" />
            <mxPoint x="1345" y="310" as="targetPoint" />
          </mxGeometry>
        </mxCell>
        <mxCell id="Zz9IWeuvRot5y11xkyDF-62" value="" style="endArrow=none;html=1;rounded=0;entryX=0.5;entryY=1;entryDx=0;entryDy=0;" edge="1" parent="1" target="Zz9IWeuvRot5y11xkyDF-59">
          <mxGeometry width="50" height="50" relative="1" as="geometry">
            <mxPoint x="1220" y="420" as="sourcePoint" />
            <mxPoint x="1374" y="295" as="targetPoint" />
          </mxGeometry>
        </mxCell>
        <mxCell id="Zz9IWeuvRot5y11xkyDF-63" value="N" style="text;html=1;strokeColor=none;fillColor=none;align=center;verticalAlign=middle;whiteSpace=wrap;rounded=0;" vertex="1" parent="1">
          <mxGeometry x="1345" y="290" width="60" height="30" as="geometry" />
        </mxCell>
        <mxCell id="Zz9IWeuvRot5y11xkyDF-64" value="1" style="text;html=1;strokeColor=none;fillColor=none;align=center;verticalAlign=middle;whiteSpace=wrap;rounded=0;" vertex="1" parent="1">
          <mxGeometry x="1340" y="190" width="60" height="30" as="geometry" />
        </mxCell>
        <mxCell id="Zz9IWeuvRot5y11xkyDF-65" value="ARRIVAL_AIRPORT" style="rhombus;whiteSpace=wrap;html=1;" vertex="1" parent="1">
          <mxGeometry x="835" y="175" width="160" height="105" as="geometry" />
        </mxCell>
        <mxCell id="Zz9IWeuvRot5y11xkyDF-66" value="DEPARTURE_AIRPORT" style="rhombus;whiteSpace=wrap;html=1;" vertex="1" parent="1">
          <mxGeometry x="830" y="40" width="170" height="100" as="geometry" />
        </mxCell>
        <mxCell id="Zz9IWeuvRot5y11xkyDF-67" value="" style="shape=link;html=1;rounded=0;" edge="1" parent="1">
          <mxGeometry width="100" relative="1" as="geometry">
            <mxPoint x="1000" y="89" as="sourcePoint" />
            <mxPoint x="1100" y="89.29000000000002" as="targetPoint" />
          </mxGeometry>
        </mxCell>
        <mxCell id="Zz9IWeuvRot5y11xkyDF-68" value="" style="shape=link;html=1;rounded=0;exitX=1;exitY=0.5;exitDx=0;exitDy=0;entryX=0;entryY=1;entryDx=0;entryDy=0;" edge="1" parent="1" source="Zz9IWeuvRot5y11xkyDF-65" target="Zz9IWeuvRot5y11xkyDF-9">
          <mxGeometry width="100" relative="1" as="geometry">
            <mxPoint x="1010" y="99" as="sourcePoint" />
            <mxPoint x="1110" y="99.29000000000002" as="targetPoint" />
          </mxGeometry>
        </mxCell>
        <mxCell id="Zz9IWeuvRot5y11xkyDF-69" value="" style="endArrow=none;html=1;rounded=0;entryX=0;entryY=0.5;entryDx=0;entryDy=0;exitX=1;exitY=0;exitDx=0;exitDy=0;" edge="1" parent="1" source="Zz9IWeuvRot5y11xkyDF-7" target="Zz9IWeuvRot5y11xkyDF-66">
          <mxGeometry width="50" height="50" relative="1" as="geometry">
            <mxPoint x="700" y="420" as="sourcePoint" />
            <mxPoint x="750" y="370" as="targetPoint" />
          </mxGeometry>
        </mxCell>
        <mxCell id="Zz9IWeuvRot5y11xkyDF-70" value="" style="endArrow=none;html=1;rounded=0;entryX=0;entryY=0.5;entryDx=0;entryDy=0;exitX=1;exitY=0.5;exitDx=0;exitDy=0;" edge="1" parent="1" source="Zz9IWeuvRot5y11xkyDF-7" target="Zz9IWeuvRot5y11xkyDF-65">
          <mxGeometry width="50" height="50" relative="1" as="geometry">
            <mxPoint x="700" y="420" as="sourcePoint" />
            <mxPoint x="750" y="370" as="targetPoint" />
          </mxGeometry>
        </mxCell>
        <mxCell id="Zz9IWeuvRot5y11xkyDF-71" value="N" style="text;html=1;strokeColor=none;fillColor=none;align=center;verticalAlign=middle;whiteSpace=wrap;rounded=0;" vertex="1" parent="1">
          <mxGeometry x="960" y="200" width="60" height="30" as="geometry" />
        </mxCell>
        <mxCell id="Zz9IWeuvRot5y11xkyDF-72" value="N" style="text;html=1;strokeColor=none;fillColor=none;align=center;verticalAlign=middle;whiteSpace=wrap;rounded=0;" vertex="1" parent="1">
          <mxGeometry x="970" y="60" width="60" height="30" as="geometry" />
        </mxCell>
        <mxCell id="Zz9IWeuvRot5y11xkyDF-73" value="1" style="text;html=1;strokeColor=none;fillColor=none;align=center;verticalAlign=middle;whiteSpace=wrap;rounded=0;" vertex="1" parent="1">
          <mxGeometry x="800" y="200" width="60" height="30" as="geometry" />
        </mxCell>
        <mxCell id="Zz9IWeuvRot5y11xkyDF-74" value="1" style="text;html=1;strokeColor=none;fillColor=none;align=center;verticalAlign=middle;whiteSpace=wrap;rounded=0;" vertex="1" parent="1">
          <mxGeometry x="790" y="70" width="60" height="30" as="geometry" />
        </mxCell>
        <mxCell id="Zz9IWeuvRot5y11xkyDF-75" value="FLIGHT_HISTORY" style="rhombus;whiteSpace=wrap;html=1;" vertex="1" parent="1">
          <mxGeometry x="395" y="220" width="140" height="80" as="geometry" />
        </mxCell>
        <mxCell id="Zz9IWeuvRot5y11xkyDF-76" value="" style="endArrow=none;html=1;rounded=0;exitX=1;exitY=1;exitDx=0;exitDy=0;entryX=0;entryY=0.5;entryDx=0;entryDy=0;" edge="1" parent="1" source="Zz9IWeuvRot5y11xkyDF-6" target="Zz9IWeuvRot5y11xkyDF-75">
          <mxGeometry width="50" height="50" relative="1" as="geometry">
            <mxPoint x="830" y="400" as="sourcePoint" />
            <mxPoint x="880" y="350" as="targetPoint" />
          </mxGeometry>
        </mxCell>
        <mxCell id="Zz9IWeuvRot5y11xkyDF-77" value="" style="endArrow=none;html=1;rounded=0;exitX=1;exitY=0.5;exitDx=0;exitDy=0;entryX=0;entryY=0;entryDx=0;entryDy=0;" edge="1" parent="1" source="Zz9IWeuvRot5y11xkyDF-75" target="Zz9IWeuvRot5y11xkyDF-4">
          <mxGeometry width="50" height="50" relative="1" as="geometry">
            <mxPoint x="830" y="400" as="sourcePoint" />
            <mxPoint x="880" y="350" as="targetPoint" />
          </mxGeometry>
        </mxCell>
        <mxCell id="Zz9IWeuvRot5y11xkyDF-78" value="M" style="text;html=1;strokeColor=none;fillColor=none;align=center;verticalAlign=middle;whiteSpace=wrap;rounded=0;" vertex="1" parent="1">
          <mxGeometry x="370" y="230" width="60" height="30" as="geometry" />
        </mxCell>
        <mxCell id="Zz9IWeuvRot5y11xkyDF-79" value="N" style="text;html=1;strokeColor=none;fillColor=none;align=center;verticalAlign=middle;whiteSpace=wrap;rounded=0;" vertex="1" parent="1">
          <mxGeometry x="510" y="235" width="60" height="30" as="geometry" />
        </mxCell>
        <mxCell id="Zz9IWeuvRot5y11xkyDF-80" value="&lt;u&gt;passenger_id&lt;/u&gt;" style="ellipse;whiteSpace=wrap;html=1;" vertex="1" parent="1">
          <mxGeometry x="20" y="-60" width="120" height="50" as="geometry" />
        </mxCell>
        <mxCell id="Zz9IWeuvRot5y11xkyDF-81" value="" style="endArrow=none;html=1;rounded=0;exitX=0;exitY=0;exitDx=0;exitDy=0;entryX=0.5;entryY=1;entryDx=0;entryDy=0;" edge="1" parent="1" source="Zz9IWeuvRot5y11xkyDF-6" target="Zz9IWeuvRot5y11xkyDF-80">
          <mxGeometry width="50" height="50" relative="1" as="geometry">
            <mxPoint x="840" y="380" as="sourcePoint" />
            <mxPoint x="890" y="330" as="targetPoint" />
          </mxGeometry>
        </mxCell>
        <mxCell id="Zz9IWeuvRot5y11xkyDF-82" value="Ticket_price" style="ellipse;whiteSpace=wrap;html=1;dashed=1;" vertex="1" parent="1">
          <mxGeometry x="55" y="500" width="85" height="30" as="geometry" />
        </mxCell>
        <mxCell id="Zz9IWeuvRot5y11xkyDF-83" value="name" style="ellipse;whiteSpace=wrap;html=1;" vertex="1" parent="1">
          <mxGeometry x="175" y="-30" width="105" height="40" as="geometry" />
        </mxCell>
        <mxCell id="Zz9IWeuvRot5y11xkyDF-84" value="fname" style="ellipse;whiteSpace=wrap;html=1;" vertex="1" parent="1">
          <mxGeometry x="130" y="-90" width="105" height="40" as="geometry" />
        </mxCell>
        <mxCell id="Zz9IWeuvRot5y11xkyDF-85" value="total_amount" style="ellipse;whiteSpace=wrap;html=1;" vertex="1" parent="1">
          <mxGeometry x="630" y="-10" width="110" height="45" as="geometry" />
        </mxCell>
        <mxCell id="Zz9IWeuvRot5y11xkyDF-86" value="lname" style="ellipse;whiteSpace=wrap;html=1;" vertex="1" parent="1">
          <mxGeometry x="247.5" y="-90" width="105" height="40" as="geometry" />
        </mxCell>
        <mxCell id="Zz9IWeuvRot5y11xkyDF-87" value="" style="endArrow=none;html=1;rounded=0;entryX=0.5;entryY=1;entryDx=0;entryDy=0;exitX=0.25;exitY=0;exitDx=0;exitDy=0;" edge="1" parent="1" source="Zz9IWeuvRot5y11xkyDF-10" target="Zz9IWeuvRot5y11xkyDF-104">
          <mxGeometry width="50" height="50" relative="1" as="geometry">
            <mxPoint x="840" y="380" as="sourcePoint" />
            <mxPoint x="890" y="330" as="targetPoint" />
          </mxGeometry>
        </mxCell>
        <mxCell id="Zz9IWeuvRot5y11xkyDF-88" value="" style="endArrow=none;html=1;rounded=0;exitX=0.5;exitY=0;exitDx=0;exitDy=0;entryX=0.25;entryY=1;entryDx=0;entryDy=0;" edge="1" parent="1" source="Zz9IWeuvRot5y11xkyDF-82" target="Zz9IWeuvRot5y11xkyDF-12">
          <mxGeometry width="50" height="50" relative="1" as="geometry">
            <mxPoint x="420" y="500" as="sourcePoint" />
            <mxPoint x="470" y="450" as="targetPoint" />
          </mxGeometry>
        </mxCell>
        <mxCell id="Zz9IWeuvRot5y11xkyDF-89" value="Class_type" style="ellipse;whiteSpace=wrap;html=1;" vertex="1" parent="1">
          <mxGeometry x="174" y="500" width="80" height="30" as="geometry" />
        </mxCell>
        <mxCell id="Zz9IWeuvRot5y11xkyDF-90" value="gender" style="ellipse;whiteSpace=wrap;html=1;" vertex="1" parent="1">
          <mxGeometry x="-30" y="10" width="90" height="35" as="geometry" />
        </mxCell>
        <mxCell id="Zz9IWeuvRot5y11xkyDF-91" value="" style="endArrow=none;html=1;rounded=0;exitX=0.5;exitY=1;exitDx=0;exitDy=0;entryX=0;entryY=0;entryDx=0;entryDy=0;" edge="1" parent="1" source="Zz9IWeuvRot5y11xkyDF-84" target="Zz9IWeuvRot5y11xkyDF-83">
          <mxGeometry width="50" height="50" relative="1" as="geometry">
            <mxPoint x="840" y="380" as="sourcePoint" />
            <mxPoint x="890" y="330" as="targetPoint" />
          </mxGeometry>
        </mxCell>
        <mxCell id="Zz9IWeuvRot5y11xkyDF-92" value="" style="endArrow=none;html=1;rounded=0;entryX=0;entryY=1;entryDx=0;entryDy=0;exitX=0.75;exitY=0;exitDx=0;exitDy=0;" edge="1" parent="1" source="Zz9IWeuvRot5y11xkyDF-10" target="Zz9IWeuvRot5y11xkyDF-85">
          <mxGeometry width="50" height="50" relative="1" as="geometry">
            <mxPoint x="558" y="80" as="sourcePoint" />
            <mxPoint x="550" y="25" as="targetPoint" />
          </mxGeometry>
        </mxCell>
        <mxCell id="Zz9IWeuvRot5y11xkyDF-93" value="" style="endArrow=none;html=1;rounded=0;" edge="1" parent="1">
          <mxGeometry width="50" height="50" relative="1" as="geometry">
            <mxPoint x="1515" y="70" as="sourcePoint" />
            <mxPoint x="1465" as="targetPoint" />
          </mxGeometry>
        </mxCell>
        <mxCell id="Zz9IWeuvRot5y11xkyDF-94" value="" style="endArrow=none;html=1;rounded=0;exitX=0.5;exitY=1;exitDx=0;exitDy=0;entryX=1;entryY=0;entryDx=0;entryDy=0;" edge="1" parent="1" source="Zz9IWeuvRot5y11xkyDF-86" target="Zz9IWeuvRot5y11xkyDF-83">
          <mxGeometry width="50" height="50" relative="1" as="geometry">
            <mxPoint x="193" y="-40" as="sourcePoint" />
            <mxPoint x="201" y="-14" as="targetPoint" />
          </mxGeometry>
        </mxCell>
        <mxCell id="Zz9IWeuvRot5y11xkyDF-95" value="" style="endArrow=none;html=1;rounded=0;exitX=1;exitY=1;exitDx=0;exitDy=0;entryX=0;entryY=0.25;entryDx=0;entryDy=0;" edge="1" parent="1" source="Zz9IWeuvRot5y11xkyDF-90" target="Zz9IWeuvRot5y11xkyDF-6">
          <mxGeometry width="50" height="50" relative="1" as="geometry">
            <mxPoint x="840" y="380" as="sourcePoint" />
            <mxPoint x="890" y="330" as="targetPoint" />
          </mxGeometry>
        </mxCell>
        <mxCell id="Zz9IWeuvRot5y11xkyDF-96" value="" style="endArrow=none;html=1;rounded=0;entryX=0.5;entryY=1;entryDx=0;entryDy=0;exitX=0.5;exitY=0;exitDx=0;exitDy=0;" edge="1" parent="1" source="Zz9IWeuvRot5y11xkyDF-6" target="Zz9IWeuvRot5y11xkyDF-83">
          <mxGeometry width="50" height="50" relative="1" as="geometry">
            <mxPoint x="840" y="380" as="sourcePoint" />
            <mxPoint x="890" y="330" as="targetPoint" />
          </mxGeometry>
        </mxCell>
        <mxCell id="Zz9IWeuvRot5y11xkyDF-97" value="" style="endArrow=none;html=1;rounded=0;entryX=0.5;entryY=1;entryDx=0;entryDy=0;exitX=0.75;exitY=0;exitDx=0;exitDy=0;" edge="1" parent="1" source="Zz9IWeuvRot5y11xkyDF-8" target="Zz9IWeuvRot5y11xkyDF-105">
          <mxGeometry width="50" height="50" relative="1" as="geometry">
            <mxPoint x="1140" y="290" as="sourcePoint" />
            <mxPoint x="1190" y="240" as="targetPoint" />
          </mxGeometry>
        </mxCell>
        <mxCell id="Zz9IWeuvRot5y11xkyDF-98" value="&lt;u&gt;AirplaneID&lt;/u&gt;" style="ellipse;whiteSpace=wrap;html=1;" vertex="1" parent="1">
          <mxGeometry x="1420" y="-40" width="70" height="40" as="geometry" />
        </mxCell>
        <mxCell id="Zz9IWeuvRot5y11xkyDF-99" value="age" style="ellipse;whiteSpace=wrap;html=1;" vertex="1" parent="1">
          <mxGeometry x="320" y="-45" width="90" height="35" as="geometry" />
        </mxCell>
        <mxCell id="Zz9IWeuvRot5y11xkyDF-100" value="" style="endArrow=none;html=1;rounded=0;exitX=0.434;exitY=-0.106;exitDx=0;exitDy=0;exitPerimeter=0;entryX=0.75;entryY=1;entryDx=0;entryDy=0;" edge="1" parent="1" source="Zz9IWeuvRot5y11xkyDF-89" target="Zz9IWeuvRot5y11xkyDF-12">
          <mxGeometry width="50" height="50" relative="1" as="geometry">
            <mxPoint x="420" y="500" as="sourcePoint" />
            <mxPoint x="470" y="450" as="targetPoint" />
          </mxGeometry>
        </mxCell>
        <mxCell id="Zz9IWeuvRot5y11xkyDF-101" value="" style="endArrow=none;html=1;rounded=0;exitX=0.769;exitY=0;exitDx=0;exitDy=0;exitPerimeter=0;entryX=0;entryY=1;entryDx=0;entryDy=0;" edge="1" parent="1" source="Zz9IWeuvRot5y11xkyDF-102" target="Zz9IWeuvRot5y11xkyDF-52">
          <mxGeometry width="50" height="50" relative="1" as="geometry">
            <mxPoint x="1180" y="740" as="sourcePoint" />
            <mxPoint x="1230" y="690" as="targetPoint" />
          </mxGeometry>
        </mxCell>
        <mxCell id="Zz9IWeuvRot5y11xkyDF-102" value="&lt;u&gt;Guide_id&lt;/u&gt;" style="ellipse;whiteSpace=wrap;html=1;" vertex="1" parent="1">
          <mxGeometry x="1015" y="740" width="65" height="40" as="geometry" />
        </mxCell>
        <mxCell id="Zz9IWeuvRot5y11xkyDF-103" value="&lt;u&gt;Ticket_id&lt;/u&gt;" style="ellipse;whiteSpace=wrap;html=1;" vertex="1" parent="1">
          <mxGeometry x="110" y="535" width="90" height="30" as="geometry" />
        </mxCell>
        <mxCell id="Zz9IWeuvRot5y11xkyDF-104" value="&lt;u&gt;card_id&lt;/u&gt;" style="ellipse;whiteSpace=wrap;html=1;" vertex="1" parent="1">
          <mxGeometry x="485" y="-30" width="110" height="45" as="geometry" />
        </mxCell>
        <mxCell id="Zz9IWeuvRot5y11xkyDF-105" value="total_no_of_seats" style="ellipse;whiteSpace=wrap;html=1;" vertex="1" parent="1">
          <mxGeometry x="1560" y="-30" width="110" height="50" as="geometry" />
        </mxCell>
        <mxCell id="Zz9IWeuvRot5y11xkyDF-106" value="" style="endArrow=none;html=1;rounded=0;entryX=0;entryY=1;entryDx=0;entryDy=0;exitX=0.873;exitY=0.033;exitDx=0;exitDy=0;exitPerimeter=0;" edge="1" parent="1" source="Zz9IWeuvRot5y11xkyDF-6" target="Zz9IWeuvRot5y11xkyDF-99">
          <mxGeometry width="50" height="50" relative="1" as="geometry">
            <mxPoint x="220" y="80" as="sourcePoint" />
            <mxPoint x="238" y="20" as="targetPoint" />
          </mxGeometry>
        </mxCell>
        <mxCell id="Zz9IWeuvRot5y11xkyDF-107" value="type" style="ellipse;whiteSpace=wrap;html=1;" vertex="1" parent="1">
          <mxGeometry x="305" y="5" width="90" height="35" as="geometry" />
        </mxCell>
        <mxCell id="Zz9IWeuvRot5y11xkyDF-108" value="" style="endArrow=none;html=1;rounded=0;entryX=0;entryY=1;entryDx=0;entryDy=0;exitX=1;exitY=0;exitDx=0;exitDy=0;" edge="1" parent="1" source="Zz9IWeuvRot5y11xkyDF-6" target="Zz9IWeuvRot5y11xkyDF-107">
          <mxGeometry width="50" height="50" relative="1" as="geometry">
            <mxPoint x="230" y="90" as="sourcePoint" />
            <mxPoint x="248" y="30" as="targetPoint" />
          </mxGeometry>
        </mxCell>
        <mxCell id="Zz9IWeuvRot5y11xkyDF-109" value="Age" style="ellipse;whiteSpace=wrap;html=1;" vertex="1" parent="1">
          <mxGeometry x="1290" y="740" width="80" height="40" as="geometry" />
        </mxCell>
        <mxCell id="Zz9IWeuvRot5y11xkyDF-110" value="" style="endArrow=none;html=1;rounded=0;exitX=0.5;exitY=1;exitDx=0;exitDy=0;entryX=0.5;entryY=0;entryDx=0;entryDy=0;" edge="1" parent="1" source="Zz9IWeuvRot5y11xkyDF-12" target="Zz9IWeuvRot5y11xkyDF-103">
          <mxGeometry width="50" height="50" relative="1" as="geometry">
            <mxPoint x="420" y="500" as="sourcePoint" />
            <mxPoint x="155" y="530" as="targetPoint" />
          </mxGeometry>
        </mxCell>
        <mxCell id="Zz9IWeuvRot5y11xkyDF-111" value="Gender" style="ellipse;whiteSpace=wrap;html=1;" vertex="1" parent="1">
          <mxGeometry x="1050" y="790" width="80" height="40" as="geometry" />
        </mxCell>
        <mxCell id="Zz9IWeuvRot5y11xkyDF-112" value="type_name" style="ellipse;whiteSpace=wrap;html=1;" vertex="1" parent="1">
          <mxGeometry x="1510" y="520" width="70" height="40" as="geometry" />
        </mxCell>
        <mxCell id="Zz9IWeuvRot5y11xkyDF-113" value="brand" style="ellipse;whiteSpace=wrap;html=1;" vertex="1" parent="1">
          <mxGeometry x="1400" y="520" width="70" height="40" as="geometry" />
        </mxCell>
        <mxCell id="Zz9IWeuvRot5y11xkyDF-114" value="" style="endArrow=none;html=1;rounded=0;exitX=0.5;exitY=0;exitDx=0;exitDy=0;entryX=0.209;entryY=1.032;entryDx=0;entryDy=0;entryPerimeter=0;" edge="1" parent="1" source="Zz9IWeuvRot5y11xkyDF-111" target="Zz9IWeuvRot5y11xkyDF-52">
          <mxGeometry width="50" height="50" relative="1" as="geometry">
            <mxPoint x="1150" y="720" as="sourcePoint" />
            <mxPoint x="1200" y="670" as="targetPoint" />
          </mxGeometry>
        </mxCell>
        <mxCell id="Zz9IWeuvRot5y11xkyDF-115" value="" style="endArrow=none;html=1;rounded=0;exitX=0.5;exitY=0;exitDx=0;exitDy=0;entryX=0.5;entryY=1;entryDx=0;entryDy=0;" edge="1" parent="1" source="Zz9IWeuvRot5y11xkyDF-139" target="Zz9IWeuvRot5y11xkyDF-52">
          <mxGeometry width="50" height="50" relative="1" as="geometry">
            <mxPoint x="1155" y="740" as="sourcePoint" />
            <mxPoint x="1219.52" y="790" as="targetPoint" />
          </mxGeometry>
        </mxCell>
        <mxCell id="Zz9IWeuvRot5y11xkyDF-116" value="location" style="ellipse;whiteSpace=wrap;html=1;" vertex="1" parent="1">
          <mxGeometry x="740" y="265" width="110" height="45" as="geometry" />
        </mxCell>
        <mxCell id="Zz9IWeuvRot5y11xkyDF-117" value="Seat_no" style="ellipse;whiteSpace=wrap;html=1;fillColor=none;" vertex="1" parent="1">
          <mxGeometry x="535" y="550" width="70" height="45" as="geometry" />
        </mxCell>
        <mxCell id="Zz9IWeuvRot5y11xkyDF-118" value="&lt;u&gt;airport_id&lt;/u&gt;" style="ellipse;whiteSpace=wrap;html=1;" vertex="1" parent="1">
          <mxGeometry x="500" y="140" width="110" height="45" as="geometry" />
        </mxCell>
        <mxCell id="Zz9IWeuvRot5y11xkyDF-119" value="" style="endArrow=none;html=1;rounded=0;entryX=0.5;entryY=1;entryDx=0;entryDy=0;exitX=0.75;exitY=0;exitDx=0;exitDy=0;" edge="1" parent="1" source="Zz9IWeuvRot5y11xkyDF-7" target="Zz9IWeuvRot5y11xkyDF-120">
          <mxGeometry width="50" height="50" relative="1" as="geometry">
            <mxPoint x="613" y="80" as="sourcePoint" />
            <mxPoint x="655" y="38" as="targetPoint" />
          </mxGeometry>
        </mxCell>
        <mxCell id="Zz9IWeuvRot5y11xkyDF-120" value="name" style="ellipse;whiteSpace=wrap;html=1;" vertex="1" parent="1">
          <mxGeometry x="640" y="100" width="110" height="45" as="geometry" />
        </mxCell>
        <mxCell id="Zz9IWeuvRot5y11xkyDF-121" value="" style="endArrow=none;dashed=1;html=1;rounded=0;" edge="1" parent="1">
          <mxGeometry width="50" height="50" relative="1" as="geometry">
            <mxPoint x="1245" y="510" as="sourcePoint" />
            <mxPoint x="1280" y="510" as="targetPoint" />
          </mxGeometry>
        </mxCell>
        <mxCell id="Zz9IWeuvRot5y11xkyDF-122" value="" style="endArrow=none;html=1;rounded=0;entryX=0.5;entryY=1;entryDx=0;entryDy=0;exitX=0.5;exitY=0;exitDx=0;exitDy=0;" edge="1" parent="1" source="Zz9IWeuvRot5y11xkyDF-9" target="Zz9IWeuvRot5y11xkyDF-133">
          <mxGeometry width="50" height="50" relative="1" as="geometry">
            <mxPoint x="840" y="380" as="sourcePoint" />
            <mxPoint x="890" y="330" as="targetPoint" />
          </mxGeometry>
        </mxCell>
        <mxCell id="Zz9IWeuvRot5y11xkyDF-123" value="Leg_id" style="ellipse;whiteSpace=wrap;html=1;fillColor=none;" vertex="1" parent="1">
          <mxGeometry x="1217.5" y="475" width="90" height="50" as="geometry" />
        </mxCell>
        <mxCell id="Zz9IWeuvRot5y11xkyDF-124" value="" style="endArrow=none;html=1;rounded=0;exitX=0;exitY=0;exitDx=0;exitDy=0;entryX=0.75;entryY=1;entryDx=0;entryDy=0;" edge="1" parent="1" source="Zz9IWeuvRot5y11xkyDF-116" target="Zz9IWeuvRot5y11xkyDF-7">
          <mxGeometry width="50" height="50" relative="1" as="geometry">
            <mxPoint x="620" y="218" as="sourcePoint" />
            <mxPoint x="710" y="250" as="targetPoint" />
          </mxGeometry>
        </mxCell>
        <mxCell id="Zz9IWeuvRot5y11xkyDF-125" value="" style="endArrow=none;html=1;rounded=0;exitX=0;exitY=0;exitDx=0;exitDy=0;entryX=0.861;entryY=1.041;entryDx=0;entryDy=0;entryPerimeter=0;" edge="1" parent="1" source="Zz9IWeuvRot5y11xkyDF-123" target="Zz9IWeuvRot5y11xkyDF-4">
          <mxGeometry width="50" height="50" relative="1" as="geometry">
            <mxPoint x="880" y="600" as="sourcePoint" />
            <mxPoint x="930" y="550" as="targetPoint" />
          </mxGeometry>
        </mxCell>
        <mxCell id="Zz9IWeuvRot5y11xkyDF-126" value="" style="endArrow=none;dashed=1;html=1;rounded=0;" edge="1" parent="1">
          <mxGeometry width="50" height="50" relative="1" as="geometry">
            <mxPoint x="549.88" y="580" as="sourcePoint" />
            <mxPoint x="590.12" y="580.24" as="targetPoint" />
          </mxGeometry>
        </mxCell>
        <mxCell id="Zz9IWeuvRot5y11xkyDF-127" value="" style="endArrow=none;html=1;rounded=0;exitX=1;exitY=0.5;exitDx=0;exitDy=0;entryX=0.25;entryY=1;entryDx=0;entryDy=0;" edge="1" parent="1" source="Zz9IWeuvRot5y11xkyDF-134" target="Zz9IWeuvRot5y11xkyDF-4">
          <mxGeometry width="50" height="50" relative="1" as="geometry">
            <mxPoint x="1130" y="600" as="sourcePoint" />
            <mxPoint x="1180" y="550" as="targetPoint" />
          </mxGeometry>
        </mxCell>
        <mxCell id="Zz9IWeuvRot5y11xkyDF-128" value="" style="endArrow=none;html=1;rounded=0;exitX=1;exitY=0.5;exitDx=0;exitDy=0;entryX=0;entryY=1;entryDx=0;entryDy=0;" edge="1" parent="1" source="Zz9IWeuvRot5y11xkyDF-130" target="Zz9IWeuvRot5y11xkyDF-4">
          <mxGeometry width="50" height="50" relative="1" as="geometry">
            <mxPoint x="1140" y="610" as="sourcePoint" />
            <mxPoint x="1190" y="560" as="targetPoint" />
          </mxGeometry>
        </mxCell>
        <mxCell id="Zz9IWeuvRot5y11xkyDF-129" value="" style="endArrow=none;html=1;rounded=0;" edge="1" parent="1">
          <mxGeometry width="50" height="50" relative="1" as="geometry">
            <mxPoint x="1440" y="520" as="sourcePoint" />
            <mxPoint x="1520" y="460" as="targetPoint" />
          </mxGeometry>
        </mxCell>
        <mxCell id="Zz9IWeuvRot5y11xkyDF-130" value="Departure_datetime" style="ellipse;whiteSpace=wrap;html=1;" vertex="1" parent="1">
          <mxGeometry x="960" y="460" width="110" height="50" as="geometry" />
        </mxCell>
        <mxCell id="Zz9IWeuvRot5y11xkyDF-131" value="" style="endArrow=none;html=1;rounded=0;entryX=0.664;entryY=1.05;entryDx=0;entryDy=0;entryPerimeter=0;exitX=0.286;exitY=0.025;exitDx=0;exitDy=0;exitPerimeter=0;" edge="1" parent="1" target="Zz9IWeuvRot5y11xkyDF-13">
          <mxGeometry width="50" height="50" relative="1" as="geometry">
            <mxPoint x="1635" y="526" as="sourcePoint" />
            <mxPoint x="1575" y="470" as="targetPoint" />
          </mxGeometry>
        </mxCell>
        <mxCell id="Zz9IWeuvRot5y11xkyDF-132" value="" style="endArrow=none;html=1;rounded=0;exitX=0.5;exitY=0;exitDx=0;exitDy=0;" edge="1" parent="1" source="Zz9IWeuvRot5y11xkyDF-109">
          <mxGeometry width="50" height="50" relative="1" as="geometry">
            <mxPoint x="1150" y="720" as="sourcePoint" />
            <mxPoint x="1220" y="690" as="targetPoint" />
          </mxGeometry>
        </mxCell>
        <mxCell id="Zz9IWeuvRot5y11xkyDF-133" value="&lt;u&gt;flight_id&lt;/u&gt;" style="ellipse;whiteSpace=wrap;html=1;" vertex="1" parent="1">
          <mxGeometry x="1100" y="-25" width="110" height="45" as="geometry" />
        </mxCell>
        <mxCell id="Zz9IWeuvRot5y11xkyDF-134" value="Arrival_datetime" style="ellipse;whiteSpace=wrap;html=1;" vertex="1" parent="1">
          <mxGeometry x="980" y="530" width="90" height="50" as="geometry" />
        </mxCell>
        <mxCell id="Zz9IWeuvRot5y11xkyDF-135" value="" style="endArrow=none;html=1;rounded=0;entryX=0.5;entryY=1;entryDx=0;entryDy=0;" edge="1" parent="1" target="Zz9IWeuvRot5y11xkyDF-13">
          <mxGeometry width="50" height="50" relative="1" as="geometry">
            <mxPoint x="1522" y="525" as="sourcePoint" />
            <mxPoint x="1605" y="467" as="targetPoint" />
          </mxGeometry>
        </mxCell>
        <mxCell id="Zz9IWeuvRot5y11xkyDF-136" value="" style="endArrow=none;html=1;rounded=0;entryX=1;entryY=1;entryDx=0;entryDy=0;exitX=0;exitY=0;exitDx=0;exitDy=0;" edge="1" parent="1" source="Zz9IWeuvRot5y11xkyDF-7" target="Zz9IWeuvRot5y11xkyDF-118">
          <mxGeometry width="50" height="50" relative="1" as="geometry">
            <mxPoint x="703" y="218" as="sourcePoint" />
            <mxPoint x="705" y="155" as="targetPoint" />
          </mxGeometry>
        </mxCell>
        <mxCell id="Zz9IWeuvRot5y11xkyDF-137" value="" style="endArrow=none;dashed=1;html=1;dashPattern=1 3;strokeWidth=2;rounded=0;" edge="1" parent="1" target="Zz9IWeuvRot5y11xkyDF-117">
          <mxGeometry width="50" height="50" relative="1" as="geometry">
            <mxPoint x="545" y="585" as="sourcePoint" />
            <mxPoint x="590" y="620" as="targetPoint" />
          </mxGeometry>
        </mxCell>
        <mxCell id="Zz9IWeuvRot5y11xkyDF-138" value="" style="endArrow=none;html=1;rounded=0;entryX=0.5;entryY=1;entryDx=0;entryDy=0;" edge="1" parent="1" target="Zz9IWeuvRot5y11xkyDF-3">
          <mxGeometry width="50" height="50" relative="1" as="geometry">
            <mxPoint x="560" y="550" as="sourcePoint" />
            <mxPoint x="528" y="470" as="targetPoint" />
          </mxGeometry>
        </mxCell>
        <mxCell id="Zz9IWeuvRot5y11xkyDF-139" value="Name" style="ellipse;whiteSpace=wrap;html=1;" vertex="1" parent="1">
          <mxGeometry x="1140" y="770" width="105" height="40" as="geometry" />
        </mxCell>
        <mxCell id="Zz9IWeuvRot5y11xkyDF-140" value="Fname" style="ellipse;whiteSpace=wrap;html=1;" vertex="1" parent="1">
          <mxGeometry x="1080" y="860" width="105" height="40" as="geometry" />
        </mxCell>
        <mxCell id="Zz9IWeuvRot5y11xkyDF-141" value="Lname" style="ellipse;whiteSpace=wrap;html=1;" vertex="1" parent="1">
          <mxGeometry x="1210" y="850" width="105" height="40" as="geometry" />
        </mxCell>
        <mxCell id="Zz9IWeuvRot5y11xkyDF-142" value="" style="endArrow=none;html=1;rounded=0;entryX=0.374;entryY=0.997;entryDx=0;entryDy=0;entryPerimeter=0;exitX=0.5;exitY=0;exitDx=0;exitDy=0;" edge="1" parent="1" source="Zz9IWeuvRot5y11xkyDF-140" target="Zz9IWeuvRot5y11xkyDF-139">
          <mxGeometry width="50" height="50" relative="1" as="geometry">
            <mxPoint x="1179" y="860" as="sourcePoint" />
            <mxPoint x="1177" y="840" as="targetPoint" />
          </mxGeometry>
        </mxCell>
        <mxCell id="Zz9IWeuvRot5y11xkyDF-143" value="" style="endArrow=none;html=1;rounded=0;exitX=0.444;exitY=-0.068;exitDx=0;exitDy=0;entryX=1;entryY=1;entryDx=0;entryDy=0;exitPerimeter=0;" edge="1" parent="1" source="Zz9IWeuvRot5y11xkyDF-141" target="Zz9IWeuvRot5y11xkyDF-139">
          <mxGeometry width="50" height="50" relative="1" as="geometry">
            <mxPoint x="1328" y="850" as="sourcePoint" />
            <mxPoint x="1290" y="790" as="targetPoint" />
          </mxGeometry>
        </mxCell>
        <mxCell id="Zz9IWeuvRot5y11xkyDF-144" value="No_of_avail_seats" style="ellipse;whiteSpace=wrap;html=1;dashed=1;" vertex="1" parent="1">
          <mxGeometry x="1240" y="590" width="120" height="55" as="geometry" />
        </mxCell>
        <mxCell id="Zz9IWeuvRot5y11xkyDF-145" value="" style="endArrow=none;html=1;rounded=0;exitX=0.155;exitY=0.067;exitDx=0;exitDy=0;entryX=0.593;entryY=1.052;entryDx=0;entryDy=0;exitPerimeter=0;entryPerimeter=0;" edge="1" parent="1" source="Zz9IWeuvRot5y11xkyDF-144" target="Zz9IWeuvRot5y11xkyDF-4">
          <mxGeometry width="50" height="50" relative="1" as="geometry">
            <mxPoint x="1080" y="565" as="sourcePoint" />
            <mxPoint x="1133" y="480" as="targetPoint" />
          </mxGeometry>
        </mxCell>
        <mxCell id="Zz9IWeuvRot5y11xkyDF-146" value="&lt;u&gt;type_id&lt;/u&gt;" style="ellipse;whiteSpace=wrap;html=1;" vertex="1" parent="1">
          <mxGeometry x="1600" y="520" width="70" height="40" as="geometry" />
        </mxCell>
      </root>
    </mxGraphModel>
  </diagram>
</mxfile>
